<svg width="105" height="16" viewBox="0 0 105 16" fill="none" xmlns="http://www.w3.org/2000/svg">
<path d="M10.0827 9.94805H4.94803L3.91123 12.3508H0.866638L6.28107 0.748457H8.68382L14.1147 12.3508H11.1195L10.0827 9.94805ZM9.11171 7.67695L7.51536 3.95761L5.91901 7.67695H9.11171Z" fill="#2A2A2A"/>
<path d="M14.8017 0.748457H17.8298V9.89867H22.767V12.3508H14.8017V0.748457Z" fill="#2A2A2A"/>
<path d="M24.2196 0.748457H29.8315C31.1151 0.748457 32.1136 1.0776 32.8267 1.73589C33.5398 2.38321 33.8964 3.28836 33.8964 4.45133C33.8964 5.60334 33.5344 6.50849 32.8102 7.16677C32.0971 7.82506 31.1042 8.15421 29.8315 8.15421H27.2477V12.3508H24.2196V0.748457ZM29.4201 5.88311C29.9796 5.88311 30.391 5.76791 30.6543 5.53751C30.9286 5.30711 31.0658 4.95054 31.0658 4.46779C31.0658 3.98504 30.9286 3.62847 30.6543 3.39807C30.391 3.1567 29.9796 3.03601 29.4201 3.03601H27.2477V5.88311H29.4201Z" fill="#2A2A2A"/>
<path d="M46.0214 0.748457V12.3508H43.0591V7.66049H38.3194V12.3508H35.3571V0.748457H38.3194V5.25774H43.0591V0.748457H46.0214Z" fill="#2A2A2A"/>
<path d="M55.9347 9.94805H50.8001L49.7632 12.3508H46.7187L52.1331 0.748457H54.5358L59.9667 12.3508H56.9715L55.9347 9.94805ZM54.9637 7.67695L53.3674 3.95761L51.771 7.67695H54.9637Z" fill="#2A2A2A"/>
<path d="M69.5592 12.4989C68.6925 12.4989 67.8367 12.3837 66.9919 12.1533C66.1471 11.9229 65.4614 11.6157 64.9348 11.2317L65.8728 9.09227C66.4324 9.44336 67.0303 9.71216 67.6666 9.89867C68.303 10.0852 68.9448 10.1784 69.5921 10.1784C70.2504 10.1784 70.7496 10.0907 71.0898 9.91513C71.4408 9.72862 71.6164 9.47079 71.6164 9.14164C71.6164 8.84541 71.4573 8.60404 71.1391 8.41752C70.8319 8.23101 70.2395 8.04449 69.3617 7.85798C68.2756 7.62758 67.4253 7.35329 66.8109 7.03512C66.1965 6.71694 65.7631 6.34391 65.5107 5.91603C65.2694 5.48814 65.1487 4.96151 65.1487 4.33613C65.1487 3.62299 65.3462 2.98664 65.7411 2.42709C66.1471 1.85658 66.7121 1.41223 67.4362 1.09406C68.1713 0.764914 69.0107 0.600342 69.9542 0.600342C70.788 0.600342 71.5944 0.721028 72.3734 0.962401C73.1634 1.1928 73.7778 1.49452 74.2166 1.86755L73.295 4.00699C72.2418 3.28287 71.1336 2.92081 69.9707 2.92081C69.4111 2.92081 68.9613 3.03053 68.6212 3.24995C68.2811 3.45841 68.111 3.73819 68.111 4.08927C68.111 4.29773 68.1713 4.46779 68.292 4.59945C68.4127 4.7311 68.6376 4.86276 68.9668 4.99442C69.2959 5.11511 69.7841 5.24128 70.4315 5.37294C71.4847 5.60334 72.3131 5.88311 72.9165 6.21226C73.5199 6.53043 73.9478 6.90346 74.2002 7.33135C74.4525 7.75924 74.5787 8.26941 74.5787 8.86187C74.5787 10.0029 74.1398 10.8971 73.2621 11.5444C72.3844 12.1807 71.1501 12.4989 69.5592 12.4989Z" fill="#2A2A2A"/>
<path d="M81.5411 4.05636C82.5066 4.05636 83.2252 4.3471 83.697 4.92859C84.1688 5.49911 84.4047 6.37134 84.4047 7.54529V12.3508H81.4753V7.67695C81.4753 7.1942 81.3875 6.84312 81.212 6.62369C81.0474 6.40426 80.7951 6.29454 80.4549 6.29454C80.0161 6.29454 79.665 6.43717 79.4017 6.72243C79.1493 6.99672 79.0232 7.36975 79.0232 7.84152V12.3508H76.0938V0.748457H79.0232V5.22482C79.3194 4.84082 79.6815 4.55008 80.1093 4.35259C80.5372 4.1551 81.0145 4.05636 81.5411 4.05636Z" fill="#2A2A2A"/>
<path d="M90.1395 12.4825C89.2508 12.4825 88.4664 12.3124 87.7861 11.9723C87.1169 11.6212 86.5957 11.1275 86.2227 10.4911C85.8606 9.85479 85.6796 9.10873 85.6796 8.25295C85.6796 7.39718 85.8606 6.6566 86.2227 6.03123C86.5957 5.39488 87.1169 4.90665 87.7861 4.56653C88.4554 4.22642 89.2398 4.05636 90.1395 4.05636C91.0392 4.05636 91.8236 4.22642 92.4929 4.56653C93.1621 4.90665 93.6778 5.39488 94.0399 6.03123C94.4129 6.6566 94.5994 7.39718 94.5994 8.25295C94.5994 9.10873 94.4129 9.85479 94.0399 10.4911C93.6778 11.1275 93.1621 11.6212 92.4929 11.9723C91.8236 12.3124 91.0392 12.4825 90.1395 12.4825ZM90.1395 10.2936C91.1818 10.2936 91.7029 9.61342 91.7029 8.25295C91.7029 6.89249 91.1818 6.21226 90.1395 6.21226C89.0972 6.21226 88.5761 6.89249 88.5761 8.25295C88.5761 9.61342 89.0972 10.2936 90.1395 10.2936Z" fill="#2A2A2A"/>
<path d="M101.291 4.05636C101.982 4.05636 102.597 4.23739 103.134 4.59945C103.683 4.95053 104.105 5.44974 104.401 6.09705C104.709 6.74437 104.862 7.48495 104.862 8.31878C104.862 9.15261 104.709 9.8877 104.401 10.524C104.105 11.1494 103.688 11.6322 103.151 11.9723C102.613 12.3124 101.993 12.4825 101.291 12.4825C100.775 12.4825 100.298 12.3782 99.8593 12.1698C99.4314 11.9613 99.0968 11.6815 98.8554 11.3305V15.3131H95.926V4.25385H98.806V5.29065C99.0364 4.90665 99.3711 4.60493 99.8099 4.3855C100.26 4.16607 100.753 4.05636 101.291 4.05636ZM100.402 10.2936C100.907 10.2936 101.291 10.1236 101.554 9.78347C101.829 9.44336 101.966 8.95513 101.966 8.31878C101.966 7.64952 101.829 7.13935 101.554 6.78826C101.28 6.4262 100.891 6.24517 100.386 6.24517C99.8812 6.24517 99.4918 6.42071 99.2175 6.7718C98.9432 7.12289 98.806 7.62758 98.806 8.28587C98.806 8.93318 98.9432 9.43239 99.2175 9.78347C99.4918 10.1236 99.8867 10.2936 100.402 10.2936Z" fill="#2A2A2A"/>
</svg>
