<svg width="24" height="24" viewBox="0 0 24 24" fill="none" xmlns="http://www.w3.org/2000/svg">
<path fill-rule="evenodd" clip-rule="evenodd" d="M15.4201 11.0822C15.4201 11.0822 10.9399 18.3466 7.26682 18.3466C0.842098 18.3466 6.82948 4.50757 11.5153 4.50757C14.7849 4.50757 15.4201 11.0822 15.4201 11.0822Z" fill="#F67599"/>
<path fill-rule="evenodd" clip-rule="evenodd" d="M20.7435 20.2182C19.4672 21.5763 17.892 22.6185 16.1428 23.262C14.3935 23.9055 12.5184 24.1327 10.6661 23.9256C8.81378 23.7185 7.03519 23.0827 5.47136 22.0687C3.90754 21.0547 2.6015 19.6904 1.6568 18.084C2.71891 19.5285 4.52033 20.4915 7.08188 20.4915C13.3921 20.4915 16.9741 15.5879 16.9741 15.5879C16.9741 15.5879 17.2839 19.4634 20.7357 20.2182H20.7435Z" fill="#F67599"/>
<path fill-rule="evenodd" clip-rule="evenodd" d="M22.6335 6.44678C23.578 8.25131 24.047 10.2667 23.9965 12.3027C23.9459 14.3388 23.3774 16.3284 22.3445 18.0838C21.5276 17.6256 20.9236 16.8647 20.6629 15.9652L19.2936 11.8632L22.6335 6.44678Z" fill="#808080"/>
<path fill-rule="evenodd" clip-rule="evenodd" d="M12.0019 0.0104213C15.0112 0.00842015 17.9109 1.13929 20.124 3.17801L17.8514 6.84532C17.0287 4.70583 15.3575 2.56375 12.1061 2.56375C5.44707 2.56375 0.511386 9.83334 0.511386 14.3908C0.509919 14.9802 0.585173 15.5673 0.735259 16.1373C0.0693495 14.3236 -0.148769 12.376 0.0994317 10.4599C0.347633 8.5439 1.05482 6.71609 2.16089 5.13186C3.26696 3.54763 4.73922 2.25381 6.45254 1.36036C8.16586 0.46691 10.0696 0.000233105 12.0019 0V0.0104213Z" fill="#808080"/>
</svg>
